<?xml version="1.0" encoding="UTF-8"?>
<svg id="Layer_1" data-name="Layer 1" xmlns="http://www.w3.org/2000/svg" viewBox="0 0 48 48">
  <defs>
    <style>
      .cls-1 {
        fill: #008661;
      }

      .cls-1, .cls-2, .cls-3, .cls-4, .cls-5, .cls-6, .cls-7, .cls-8, .cls-9 {
        stroke-width: 0px;
      }

      .cls-2 {
        fill: #05e594;
      }

      .cls-3 {
        fill: #00b277;
      }

      .cls-4 {
        fill: #d82b50;
      }

      .cls-5 {
        fill: #7d3327;
      }

      .cls-6 {
        fill: #00d18d;
      }

      .cls-7 {
        fill: #ff3b65;
      }

      .cls-8 {
        fill: #ff8098;
      }

      .cls-9 {
        fill: #00a27a;
      }
    </style>
  </defs>
  <path class="cls-7" d="M24,36.41c2.69,0,6.588,1.96,10.353-1.96,4.039-4.206,5.647-10.78,5.647-14.699,0-5.88-1.882-8.82-5.647-10.78s-6.588,0-10.353,0c-3.765,0-6.588-1.96-10.353,0s-5.647,4.9-5.647,10.78c0,3.92,1.608,10.494,5.647,14.699,3.765,3.92,7.663,1.96,10.353,1.96Z"/>
  <path class="cls-4" d="M40,19.75c0,1.23-.16,2.73-.51,4.33-.74,3.49-2.37,7.48-5.14,10.37-2.09,2.18-4.22,2.54-6.16,2.43-1.56-.08-3-.47-4.19-.47-2.69,0-6.59,1.96-10.35-1.96-2.77-2.89-4.4-6.88-5.14-10.37,2.36.62,4.02.93,5.38,1.19,2.05.39,3.68.69,5.86,1.71.678.321,2.063.976,3.66,2.099.356.25.825.25,1.18-.001,1.589-1.123,2.974-1.777,3.661-2.098,2.18-1.02,3.81-1.32,5.86-1.71.188-.035.382-.072.584-.111.739-.143,1.341-.695,1.543-1.42.155-.558.278-1.091.373-1.589,1.31-6.85-.23-10.7-4.18-13.82-.04-.03-.08-.06-.12-.09.65.13,1.33.36,2.04.73,3.77,1.96,5.65,4.9,5.65,10.78Z"/>
  <path class="cls-8" d="M12,20.75c-.552,0-1-.448-1-1,0-1.296.038-2.79.492-4.131.585-1.728,1.777-3.069,3.541-3.988.49-.255,1.094-.064,1.349.425.255.49.064,1.094-.425,1.349-1.309.682-2.15,1.615-2.57,2.855-.356,1.052-.386,2.353-.386,3.489,0,.552-.448,1-1,1Z"/>
  <path class="cls-6" d="M26.553,1.994c-1.942,1.121-3.181,2.987-3.577,5.028-.047.24.097.488.328.568,1.966.678,4.201.537,6.143-.584s3.181-2.987,3.577-5.028c.047-.24-.097-.488-.328-.568-1.966-.678-4.201-.537-6.143.584Z"/>
  <path class="cls-3" d="M28.065,5.65c-1.563.331-3.11.134-4.472-.455-.281.582-.494,1.194-.617,1.827-.047.24.097.488.328.568,1.966.678,4.201.537,6.143-.584,1.942-1.121,3.181-2.987,3.577-5.028-1.009,1.818-2.765,3.208-4.959,3.672Z"/>
  <path class="cls-5" d="M23.959,10.819c-.516,0-.954-.397-.996-.92-.344-4.307-3.167-7.16-3.196-7.188-.391-.389-.395-1.021-.007-1.413.388-.392,1.019-.397,1.411-.011.138.136,3.38,3.38,3.786,8.453.044.551-.367,1.033-.917,1.077-.027.002-.054.003-.081.003Z"/>
  <path class="cls-6" d="M19.315,45.691c.006.472.346.88.811.964,1.26.228,2.553.345,3.874.345,11.579,0,21.067-8.913,21.996-20.246.058-.711-.616-1.262-1.296-1.047-1.068.338-2.364.727-3.83,1.121-6.473,1.736-8.119,1.365-11.35,2.87-1.305.612-4.677,2.218-7.196,5.801-2.655,3.769-3.04,7.838-3.009,10.192Z"/>
  <path class="cls-3" d="M45.91,27.64c-1.02,8.3-6.64,15.17-14.23,17.98-2.39.89-4.98,1.38-7.68,1.38-1.316,0-2.602-.119-3.859-.338-.469-.082-.815-.495-.821-.971-.01-.78.02-1.75.17-2.831.3-2.19,1.06-4.84,2.83-7.36,1.23-1.75,2.67-3.03,3.97-3.95.63.65,1.26,1.39,1.84,2.22,1.781,2.538,2.719,5.178,3.168,7.551.058.307.375.493.667.383,6.344-2.402,11.536-7.459,13.945-14.064Z"/>
  <path class="cls-9" d="M20.304,46.671c-.247,0-.494-.09-.687-.273-.402-.379-.419-1.012-.041-1.414,2.902-3.072,5.594-5.496,8-7.205.501-.362.987-.697,1.451-1,1.331-.878,2.472-1.543,3.576-2.186,1.216-.708,2.364-1.377,3.735-2.307.457-.31,1.079-.191,1.389.266.31.457.191,1.079-.266,1.389-1.428.969-2.66,1.686-3.852,2.38-1.08.629-2.197,1.279-3.486,2.13-.444.289-.903.605-1.382.953-2.274,1.615-4.938,4.017-7.711,6.952-.197.208-.462.313-.727.313Z"/>
  <path class="cls-1" d="M30.125,38.453c.112-.074.216-.139.326-.21-.224-.618-.487-1.242-.792-1.869-.208.133-.413.263-.63.406-.464.303-.95.638-1.451,1-2.406,1.709-5.098,4.133-8,7.205-.166.176-.242.397-.257.621,0,.027,0,.058,0,.085.003.209.079.399.194.561.022.03.038.063.064.09.043.048.097.086.148.125.052.037.103.075.159.101.044.021.091.036.138.051.092.027.185.052.28.052.265,0,.53-.105.727-.313,2.772-2.935,5.437-5.337,7.711-6.952.479-.347.938-.664,1.382-.953Z"/>
  <path class="cls-2" d="M28.685,45.691c-.006.472-.346.88-.811.964-1.26.228-2.553.345-3.874.345-11.579,0-21.067-8.913-21.996-20.246-.058-.711.616-1.262,1.296-1.047,1.068.338,2.364.727,3.83,1.121,6.473,1.736,8.119,1.365,11.35,2.87,1.305.612,4.677,2.218,7.196,5.801,2.655,3.769,3.04,7.838,3.009,10.192Z"/>
  <path class="cls-6" d="M2.133,27.745c1.388,10.854,10.63,19.255,21.867,19.255,1.321,0,2.614-.117,3.874-.345.464-.084.804-.492.811-.964.01-.777-.036-1.753-.183-2.831-11.475,2.018-22.464-4.568-26.369-15.115Z"/>
  <path class="cls-3" d="M27.685,46.678c-.265,0-.53-.105-.727-.313-2.772-2.935-5.437-5.337-7.704-6.947-.486-.352-.945-.668-1.384-.954-1.294-.854-2.411-1.504-3.491-2.133-1.192-.694-2.424-1.412-3.852-2.38-.457-.31-.576-.932-.266-1.389.311-.457.933-.576,1.389-.266,1.371.93,2.52,1.599,3.735,2.307,1.104.643,2.245,1.308,3.581,2.189.459.299.945.634,1.453,1,2.399,1.704,5.091,4.128,7.993,7.2.379.401.361,1.034-.041,1.414-.193.183-.44.273-.687.273Z"/>
</svg>