<?xml version="1.0" encoding="utf-8"?>
<!-- Generator: Adobe Illustrator 23.0.2, SVG Export Plug-In . SVG Version: 6.00 Build 0)  -->
<svg version="1.1" id="Layer_1" xmlns="http://www.w3.org/2000/svg" xmlns:xlink="http://www.w3.org/1999/xlink" x="0px" y="0px"
	 viewBox="0 0 190.5894 304.353" enable-background="new 0 0 190.5894 304.353" xml:space="preserve">
<g>
	<path d="M178.3499,254.4388c2.3418,0,4.709-0.6699,6.8008-2.0703c5.623-3.7627,7.1309-11.3711,3.3682-16.9932l-33.7939-50.5
		c-1.292-1.9307-3.1064-3.4541-5.2314-4.3926l-27.8954-12.3222v-60.6078l28.494-27.3405c0.8359-0.8018,1.4873-1.7759,1.9102-2.8545
		l15.6699-40c1.6113-4.1138-0.417-8.7554-4.5313-10.3667c-4.1113-1.6113-8.7549,0.4165-10.3672,4.5308l-15.0283,38.3628
		l-21.8757,20.9901c-4.4295,6.7876-12.0863,11.2863-20.7786,11.2863c-6.4289,0-12.2935-2.4597-16.7042-6.4864h-0.1499
		l-26.8782-25.79L36.3303,31.5219c-1.6113-4.1143-6.2529-6.1431-10.3672-4.5308c-4.1143,1.6113-6.1426,6.2529-4.5313,10.3667
		l15.6699,40c0.4229,1.0786,1.0742,2.0527,1.9102,2.8545l28.4943,27.3407v61.2632L41.095,180.4828
		c-2.125,0.9385-3.9395,2.4619-5.2314,4.3926l-33.793,50.5c-3.7627,5.6221-2.2549,13.2305,3.3682,16.9932
		c2.0923,1.4004,4.4595,2.0703,6.8013,2.0703c3.9507,0,7.8296-1.9082,10.1919-5.4385l31.8154-47.5439l37.4961-16.5635
		c1.358-0.5997,2.5417-1.4257,3.5508-2.4001c1.0091,0.9744,2.1927,1.8004,3.5508,2.4001l37.4961,16.5635l31.8164,47.5439
		C170.5198,252.5306,174.3987,254.4388,178.3499,254.4388z"/>
	<path d="M117.591,77.3613c0-12.4262-10.0722-22.5-22.5-22.5c-12.4258,0-22.5,10.0738-22.5,22.5c0,12.4268,10.0742,22.5,22.5,22.5
		C107.5188,99.8613,117.591,89.7881,117.591,77.3613z M95.8841,82.7914c6.979-0.4966,12.3469-4.9402,12.6359-0.9008
		c0.287,4.04-5.1368,7.7177-12.114,8.2156c-6.9789,0.4966-12.8687-2.3756-13.1557-6.4155
		C82.9614,79.6503,88.9071,83.2884,95.8841,82.7914z"/>
	<rect x="85.3947" y="204.5613" width="2.3333" height="54.5093"/>
	<rect x="99.3947" y="215.9174" width="2.3333" height="54.5092"/>
	<rect x="92.3947" y="226.1379" width="2.3333" height="78.2151"/>
	<polygon points="119.8456,1.957 115.7401,0 107.5858,46.3945 109.5409,47.2236 	"/>
	<polygon points="114.8905,51.0254 116.1347,52.7461 148.3729,19.3388 145.871,15.539 	"/>
	<polygon points="82.7245,0.7236 96.4179,45.7959 98.535,45.6523 87.2733,0.6142 	"/>
</g>
</svg>
