<?xml version="1.0" encoding="UTF-8" standalone="no"?> <svg id="Layer_1" data-name="Layer 1" xmlns="http://www.w3.org/2000/svg" viewBox="0 0 512 512"><title>Free Delivery</title><path d="M146.891,181.333H136.224V192h10.667a5.333,5.333,0,0,0,0-10.667Z"/><path d="M298.667,96H53.334a32,32,0,0,0-32,32V256h-10.1C5.925,256,1,259.63.146,264.875a10.675,10.675,0,0,0,10.521,12.459h26.1c5.314,0,10.238,3.63,11.092,8.875a10.675,10.675,0,0,1-10.521,12.459h-26.1C5.925,298.667,1,302.3.146,307.541A10.675,10.675,0,0,0,10.667,320H320a10.667,10.667,0,0,0,10.667-10.667V128A32,32,0,0,0,298.667,96ZM96,181.333H74.667V192h16a10.667,10.667,0,1,1,0,21.333h-16v21.333a10.667,10.667,0,0,1-21.333,0v-64A10.667,10.667,0,0,1,64,160H96a10.667,10.667,0,0,1,0,21.333Zm73.583,46.31a10.665,10.665,0,1,1-16.052,14.047l-17.307-19.779v12.755a10.667,10.667,0,0,1-21.333,0v-64A10.667,10.667,0,0,1,125.557,160h21.333a26.668,26.668,0,0,1,8.854,51.823ZM221.1,192a10.667,10.667,0,1,1,0,21.333H205.333V224h21.333a10.667,10.667,0,1,1,0,21.333h-32A10.667,10.667,0,0,1,184,234.667v-64A10.667,10.667,0,0,1,194.667,160h32a10.667,10.667,0,0,1,0,21.333H205.333V192Zm61.328,0a10.667,10.667,0,1,1,0,21.333h-15.76V224H288a10.667,10.667,0,1,1,0,21.333H256a10.667,10.667,0,0,1-10.667-10.667v-64A10.667,10.667,0,0,1,256,160h32a10.667,10.667,0,0,1,0,21.333H266.667V192Z"/><path d="M72.078,341.333H21.334a32,32,0,0,0,32,32h5.6A58.374,58.374,0,0,1,72.078,341.333Z"/><path d="M320,341.333H162.589a58.374,58.374,0,0,1,13.142,32H320a10.667,10.667,0,0,0,10.667-10.667V352A10.667,10.667,0,0,0,320,341.333Z"/><circle cx="117.333" cy="378.667" r="37.333"/><path d="M507.219,275.173,466.234,185.01A42.749,42.749,0,0,0,427.4,160H362.667A10.667,10.667,0,0,0,352,170.667V338.484a58.588,58.588,0,0,1,101.064,34.849H480a32,32,0,0,0,32-32V297.242A53.32,53.32,0,0,0,507.219,275.173Zm-48.633-8.507H389.333A10.667,10.667,0,0,1,378.667,256V213.333a10.667,10.667,0,0,1,10.667-10.667h42.991a21.333,21.333,0,0,1,19.421,12.5L468.3,251.586A10.667,10.667,0,0,1,458.586,266.667Z"/><circle cx="394.667" cy="378.667" r="37.333"/></svg>